<mxfile host="app.diagrams.net" modified="2023-11-17T04:40:16.528Z" agent="Mozilla/5.0 (Windows NT 10.0; Win64; x64) AppleWebKit/537.36 (KHTML, like Gecko) Chrome/119.0.0.0 Safari/537.36" etag="hS2CkR9X2p5a3ioNCUu8" version="22.1.2" type="device">
  <diagram name="Page-1" id="7XYtNDPcX184C-jBO8Gl">
    <mxGraphModel dx="658" dy="1539" grid="1" gridSize="10" guides="1" tooltips="1" connect="1" arrows="1" fold="1" page="1" pageScale="1" pageWidth="850" pageHeight="1100" math="0" shadow="0">
      <root>
        <mxCell id="0" />
        <mxCell id="1" parent="0" />
        <mxCell id="vlf1GPZ0-Nh4p41JJBdb-6" value="" style="html=1;strokeWidth=2;shape=manualInput;whiteSpace=wrap;rounded=1;size=80;arcSize=22;" vertex="1" parent="1">
          <mxGeometry x="160" y="510" width="150" height="90" as="geometry" />
        </mxCell>
        <mxCell id="vlf1GPZ0-Nh4p41JJBdb-7" value="" style="html=1;strokeWidth=2;shape=manualInput;whiteSpace=wrap;rounded=1;size=80;arcSize=22;" vertex="1" parent="1">
          <mxGeometry x="420" y="510" width="150" height="90" as="geometry" />
        </mxCell>
        <mxCell id="vlf1GPZ0-Nh4p41JJBdb-8" value="" style="html=1;strokeWidth=2;shape=manualInput;whiteSpace=wrap;rounded=1;size=80;arcSize=22;" vertex="1" parent="1">
          <mxGeometry x="180" y="650" width="360" height="90" as="geometry" />
        </mxCell>
        <mxCell id="vlf1GPZ0-Nh4p41JJBdb-9" value="input sorted array X" style="text;html=1;align=center;verticalAlign=middle;resizable=0;points=[];autosize=1;strokeColor=none;fillColor=none;" vertex="1" parent="1">
          <mxGeometry x="160" y="480" width="130" height="30" as="geometry" />
        </mxCell>
        <mxCell id="vlf1GPZ0-Nh4p41JJBdb-10" value="input sorted array Y" style="text;html=1;align=center;verticalAlign=middle;resizable=0;points=[];autosize=1;strokeColor=none;fillColor=none;" vertex="1" parent="1">
          <mxGeometry x="435" y="480" width="130" height="30" as="geometry" />
        </mxCell>
        <mxCell id="vlf1GPZ0-Nh4p41JJBdb-11" value="" style="endArrow=none;html=1;rounded=0;strokeColor=#FF0000;strokeWidth=3;" edge="1" parent="1">
          <mxGeometry width="50" height="50" relative="1" as="geometry">
            <mxPoint x="240" y="600" as="sourcePoint" />
            <mxPoint x="240" y="550" as="targetPoint" />
          </mxGeometry>
        </mxCell>
        <mxCell id="vlf1GPZ0-Nh4p41JJBdb-12" value="x" style="edgeLabel;html=1;align=center;verticalAlign=middle;resizable=0;points=[];" vertex="1" connectable="0" parent="vlf1GPZ0-Nh4p41JJBdb-11">
          <mxGeometry x="-0.5343" y="2" relative="1" as="geometry">
            <mxPoint x="-3" y="32" as="offset" />
          </mxGeometry>
        </mxCell>
        <mxCell id="vlf1GPZ0-Nh4p41JJBdb-13" value="" style="endArrow=none;html=1;rounded=0;strokeColor=#0066CC;strokeWidth=3;" edge="1" parent="1">
          <mxGeometry width="50" height="50" relative="1" as="geometry">
            <mxPoint x="502.71000000000004" y="600" as="sourcePoint" />
            <mxPoint x="502.71000000000004" y="550" as="targetPoint" />
          </mxGeometry>
        </mxCell>
        <mxCell id="vlf1GPZ0-Nh4p41JJBdb-14" value="the position of x in Y" style="edgeLabel;html=1;align=center;verticalAlign=middle;resizable=0;points=[];" vertex="1" connectable="0" parent="vlf1GPZ0-Nh4p41JJBdb-13">
          <mxGeometry x="-0.5343" y="2" relative="1" as="geometry">
            <mxPoint x="-4" y="32" as="offset" />
          </mxGeometry>
        </mxCell>
        <mxCell id="vlf1GPZ0-Nh4p41JJBdb-15" value="" style="endArrow=none;html=1;rounded=0;strokeColor=#6600CC;strokeWidth=3;" edge="1" parent="1">
          <mxGeometry width="50" height="50" relative="1" as="geometry">
            <mxPoint x="380" y="740" as="sourcePoint" />
            <mxPoint x="380" y="690" as="targetPoint" />
          </mxGeometry>
        </mxCell>
        <mxCell id="vlf1GPZ0-Nh4p41JJBdb-16" value="the position of x in Z" style="edgeLabel;html=1;align=center;verticalAlign=middle;resizable=0;points=[];" vertex="1" connectable="0" parent="vlf1GPZ0-Nh4p41JJBdb-15">
          <mxGeometry x="-0.5343" y="2" relative="1" as="geometry">
            <mxPoint x="-3" y="32" as="offset" />
          </mxGeometry>
        </mxCell>
        <mxCell id="vlf1GPZ0-Nh4p41JJBdb-18" value="" style="html=1;strokeWidth=2;shape=manualInput;whiteSpace=wrap;rounded=1;size=40;arcSize=22;fillColor=#FF6666;" vertex="1" parent="1">
          <mxGeometry x="160" y="550" width="80" height="50" as="geometry" />
        </mxCell>
        <mxCell id="vlf1GPZ0-Nh4p41JJBdb-19" value="" style="html=1;strokeWidth=2;shape=manualInput;whiteSpace=wrap;rounded=1;size=40;arcSize=22;fillColor=#007FFF;" vertex="1" parent="1">
          <mxGeometry x="420" y="550" width="80" height="50" as="geometry" />
        </mxCell>
        <mxCell id="vlf1GPZ0-Nh4p41JJBdb-20" value="" style="endArrow=classic;html=1;rounded=0;exitX=0.109;exitY=1.028;exitDx=0;exitDy=0;exitPerimeter=0;entryX=0.35;entryY=0.535;entryDx=0;entryDy=0;entryPerimeter=0;" edge="1" parent="1" source="vlf1GPZ0-Nh4p41JJBdb-19" target="vlf1GPZ0-Nh4p41JJBdb-8">
          <mxGeometry width="50" height="50" relative="1" as="geometry">
            <mxPoint x="310" y="800" as="sourcePoint" />
            <mxPoint x="360" y="750" as="targetPoint" />
          </mxGeometry>
        </mxCell>
        <mxCell id="vlf1GPZ0-Nh4p41JJBdb-21" value="" style="endArrow=classic;html=1;rounded=0;exitX=0.578;exitY=1.058;exitDx=0;exitDy=0;exitPerimeter=0;" edge="1" parent="1" source="vlf1GPZ0-Nh4p41JJBdb-18">
          <mxGeometry width="50" height="50" relative="1" as="geometry">
            <mxPoint x="439" y="611" as="sourcePoint" />
            <mxPoint x="300" y="700" as="targetPoint" />
          </mxGeometry>
        </mxCell>
        <mxCell id="vlf1GPZ0-Nh4p41JJBdb-22" value="" style="html=1;strokeWidth=2;shape=manualInput;whiteSpace=wrap;rounded=1;size=80;arcSize=22;" vertex="1" parent="1">
          <mxGeometry x="155" y="770" width="150" height="90" as="geometry" />
        </mxCell>
        <mxCell id="vlf1GPZ0-Nh4p41JJBdb-23" value="" style="html=1;strokeWidth=2;shape=manualInput;whiteSpace=wrap;rounded=1;size=80;arcSize=22;" vertex="1" parent="1">
          <mxGeometry x="415" y="770" width="150" height="90" as="geometry" />
        </mxCell>
        <mxCell id="vlf1GPZ0-Nh4p41JJBdb-24" value="" style="html=1;strokeWidth=2;shape=manualInput;whiteSpace=wrap;rounded=1;size=80;arcSize=22;" vertex="1" parent="1">
          <mxGeometry x="170" y="880" width="360" height="90" as="geometry" />
        </mxCell>
        <mxCell id="vlf1GPZ0-Nh4p41JJBdb-27" value="" style="endArrow=none;html=1;rounded=0;strokeColor=#FF0000;strokeWidth=3;" edge="1" parent="1">
          <mxGeometry width="50" height="50" relative="1" as="geometry">
            <mxPoint x="235" y="860" as="sourcePoint" />
            <mxPoint x="235" y="810" as="targetPoint" />
          </mxGeometry>
        </mxCell>
        <mxCell id="vlf1GPZ0-Nh4p41JJBdb-31" value="" style="endArrow=none;html=1;rounded=0;strokeColor=#6600CC;strokeWidth=3;" edge="1" parent="1">
          <mxGeometry width="50" height="50" relative="1" as="geometry">
            <mxPoint x="362" y="968" as="sourcePoint" />
            <mxPoint x="362" y="918" as="targetPoint" />
          </mxGeometry>
        </mxCell>
        <mxCell id="vlf1GPZ0-Nh4p41JJBdb-37" value="" style="endArrow=none;html=1;rounded=0;strokeColor=#FF0000;strokeWidth=3;" edge="1" parent="1">
          <mxGeometry width="50" height="50" relative="1" as="geometry">
            <mxPoint x="199.71" y="860" as="sourcePoint" />
            <mxPoint x="200" y="830" as="targetPoint" />
          </mxGeometry>
        </mxCell>
        <mxCell id="vlf1GPZ0-Nh4p41JJBdb-43" value="" style="endArrow=none;html=1;rounded=0;strokeColor=#FF0000;strokeWidth=3;" edge="1" parent="1">
          <mxGeometry width="50" height="50" relative="1" as="geometry">
            <mxPoint x="270" y="860" as="sourcePoint" />
            <mxPoint x="270" y="790" as="targetPoint" />
          </mxGeometry>
        </mxCell>
        <mxCell id="vlf1GPZ0-Nh4p41JJBdb-47" value="" style="endArrow=none;html=1;rounded=0;strokeColor=#0066CC;strokeWidth=3;" edge="1" parent="1">
          <mxGeometry width="50" height="50" relative="1" as="geometry">
            <mxPoint x="489.86" y="860" as="sourcePoint" />
            <mxPoint x="489.86" y="810" as="targetPoint" />
          </mxGeometry>
        </mxCell>
        <mxCell id="vlf1GPZ0-Nh4p41JJBdb-48" value="" style="endArrow=none;html=1;rounded=0;strokeColor=#0066CC;strokeWidth=3;" edge="1" parent="1">
          <mxGeometry width="50" height="50" relative="1" as="geometry">
            <mxPoint x="454.57000000000005" y="860" as="sourcePoint" />
            <mxPoint x="454.86" y="830" as="targetPoint" />
          </mxGeometry>
        </mxCell>
        <mxCell id="vlf1GPZ0-Nh4p41JJBdb-49" value="" style="endArrow=none;html=1;rounded=0;strokeColor=#0066CC;strokeWidth=3;" edge="1" parent="1">
          <mxGeometry width="50" height="50" relative="1" as="geometry">
            <mxPoint x="524.86" y="860" as="sourcePoint" />
            <mxPoint x="524.86" y="790" as="targetPoint" />
          </mxGeometry>
        </mxCell>
        <mxCell id="vlf1GPZ0-Nh4p41JJBdb-50" value="" style="endArrow=none;html=1;rounded=0;strokeColor=#6600CC;strokeWidth=3;" edge="1" parent="1">
          <mxGeometry width="50" height="50" relative="1" as="geometry">
            <mxPoint x="265" y="970" as="sourcePoint" />
            <mxPoint x="265" y="940" as="targetPoint" />
          </mxGeometry>
        </mxCell>
        <mxCell id="vlf1GPZ0-Nh4p41JJBdb-52" value="" style="endArrow=none;html=1;rounded=0;strokeColor=#6600CC;strokeWidth=3;" edge="1" parent="1">
          <mxGeometry width="50" height="50" relative="1" as="geometry">
            <mxPoint x="445" y="970" as="sourcePoint" />
            <mxPoint x="445" y="900" as="targetPoint" />
          </mxGeometry>
        </mxCell>
        <mxCell id="vlf1GPZ0-Nh4p41JJBdb-53" value="" style="html=1;strokeWidth=2;shape=manualInput;whiteSpace=wrap;rounded=1;size=27;arcSize=22;fillColor=#FF6666;" vertex="1" parent="1">
          <mxGeometry x="159" y="828" width="40" height="30" as="geometry" />
        </mxCell>
        <mxCell id="vlf1GPZ0-Nh4p41JJBdb-56" value="" style="html=1;strokeWidth=2;shape=manualInput;whiteSpace=wrap;rounded=1;size=13;arcSize=22;fillColor=#FF6666;" vertex="1" parent="1">
          <mxGeometry x="203" y="810" width="30" height="50" as="geometry" />
        </mxCell>
        <mxCell id="vlf1GPZ0-Nh4p41JJBdb-58" value="" style="html=1;strokeWidth=2;shape=manualInput;whiteSpace=wrap;rounded=1;size=13;arcSize=22;fillColor=#FF6666;" vertex="1" parent="1">
          <mxGeometry x="239" y="793" width="30" height="68" as="geometry" />
        </mxCell>
        <mxCell id="vlf1GPZ0-Nh4p41JJBdb-61" value="" style="html=1;strokeWidth=2;shape=manualInput;whiteSpace=wrap;rounded=1;size=13;arcSize=22;fillColor=#FF6666;" vertex="1" parent="1">
          <mxGeometry x="273" y="779" width="30" height="78" as="geometry" />
        </mxCell>
        <mxCell id="vlf1GPZ0-Nh4p41JJBdb-76" value="" style="html=1;strokeWidth=2;shape=manualInput;whiteSpace=wrap;rounded=1;size=27;arcSize=22;fillColor=#3399FF;" vertex="1" parent="1">
          <mxGeometry x="414" y="828" width="40" height="30" as="geometry" />
        </mxCell>
        <mxCell id="vlf1GPZ0-Nh4p41JJBdb-77" value="" style="html=1;strokeWidth=2;shape=manualInput;whiteSpace=wrap;rounded=1;size=13;arcSize=22;fillColor=#3399FF;" vertex="1" parent="1">
          <mxGeometry x="458" y="810" width="30" height="50" as="geometry" />
        </mxCell>
        <mxCell id="vlf1GPZ0-Nh4p41JJBdb-78" value="" style="html=1;strokeWidth=2;shape=manualInput;whiteSpace=wrap;rounded=1;size=13;arcSize=22;fillColor=#3399FF;" vertex="1" parent="1">
          <mxGeometry x="494" y="793" width="30" height="68" as="geometry" />
        </mxCell>
        <mxCell id="vlf1GPZ0-Nh4p41JJBdb-79" value="" style="html=1;strokeWidth=2;shape=manualInput;whiteSpace=wrap;rounded=1;size=13;arcSize=22;fillColor=#3399FF;" vertex="1" parent="1">
          <mxGeometry x="528" y="779" width="30" height="78" as="geometry" />
        </mxCell>
        <mxCell id="vlf1GPZ0-Nh4p41JJBdb-82" style="edgeStyle=orthogonalEdgeStyle;rounded=0;orthogonalLoop=1;jettySize=auto;html=1;entryX=0.12;entryY=0.765;entryDx=0;entryDy=0;entryPerimeter=0;" edge="1" parent="1" source="vlf1GPZ0-Nh4p41JJBdb-53" target="vlf1GPZ0-Nh4p41JJBdb-24">
          <mxGeometry relative="1" as="geometry" />
        </mxCell>
        <mxCell id="vlf1GPZ0-Nh4p41JJBdb-84" style="edgeStyle=orthogonalEdgeStyle;rounded=0;orthogonalLoop=1;jettySize=auto;html=1;entryX=0.118;entryY=0.773;entryDx=0;entryDy=0;entryPerimeter=0;" edge="1" parent="1" source="vlf1GPZ0-Nh4p41JJBdb-76" target="vlf1GPZ0-Nh4p41JJBdb-24">
          <mxGeometry relative="1" as="geometry">
            <Array as="points">
              <mxPoint x="434" y="878" />
              <mxPoint x="212" y="878" />
            </Array>
          </mxGeometry>
        </mxCell>
        <mxCell id="vlf1GPZ0-Nh4p41JJBdb-88" value="merge" style="edgeLabel;html=1;align=center;verticalAlign=middle;resizable=0;points=[];" vertex="1" connectable="0" parent="vlf1GPZ0-Nh4p41JJBdb-84">
          <mxGeometry x="0.7701" y="1" relative="1" as="geometry">
            <mxPoint as="offset" />
          </mxGeometry>
        </mxCell>
        <mxCell id="vlf1GPZ0-Nh4p41JJBdb-89" style="edgeStyle=orthogonalEdgeStyle;rounded=0;orthogonalLoop=1;jettySize=auto;html=1;entryX=0.376;entryY=0.529;entryDx=0;entryDy=0;entryPerimeter=0;" edge="1" parent="1" source="vlf1GPZ0-Nh4p41JJBdb-56" target="vlf1GPZ0-Nh4p41JJBdb-24">
          <mxGeometry relative="1" as="geometry">
            <Array as="points">
              <mxPoint x="218" y="880" />
              <mxPoint x="305" y="880" />
            </Array>
          </mxGeometry>
        </mxCell>
        <mxCell id="vlf1GPZ0-Nh4p41JJBdb-90" style="edgeStyle=orthogonalEdgeStyle;rounded=0;orthogonalLoop=1;jettySize=auto;html=1;entryX=0.376;entryY=0.517;entryDx=0;entryDy=0;entryPerimeter=0;" edge="1" parent="1" source="vlf1GPZ0-Nh4p41JJBdb-77" target="vlf1GPZ0-Nh4p41JJBdb-24">
          <mxGeometry relative="1" as="geometry">
            <Array as="points">
              <mxPoint x="473" y="880" />
              <mxPoint x="305" y="880" />
            </Array>
          </mxGeometry>
        </mxCell>
        <mxCell id="vlf1GPZ0-Nh4p41JJBdb-91" value="merge" style="edgeLabel;html=1;align=center;verticalAlign=middle;resizable=0;points=[];" vertex="1" connectable="0" parent="vlf1GPZ0-Nh4p41JJBdb-90">
          <mxGeometry x="0.7802" y="1" relative="1" as="geometry">
            <mxPoint as="offset" />
          </mxGeometry>
        </mxCell>
        <mxCell id="vlf1GPZ0-Nh4p41JJBdb-92" style="edgeStyle=orthogonalEdgeStyle;rounded=0;orthogonalLoop=1;jettySize=auto;html=1;entryX=0.627;entryY=0.316;entryDx=0;entryDy=0;entryPerimeter=0;" edge="1" parent="1" source="vlf1GPZ0-Nh4p41JJBdb-58" target="vlf1GPZ0-Nh4p41JJBdb-24">
          <mxGeometry relative="1" as="geometry">
            <Array as="points">
              <mxPoint x="254" y="881" />
              <mxPoint x="289" y="881" />
              <mxPoint x="289" y="880" />
              <mxPoint x="396" y="880" />
            </Array>
          </mxGeometry>
        </mxCell>
        <mxCell id="vlf1GPZ0-Nh4p41JJBdb-93" style="edgeStyle=orthogonalEdgeStyle;rounded=0;orthogonalLoop=1;jettySize=auto;html=1;exitX=0.589;exitY=0.978;exitDx=0;exitDy=0;exitPerimeter=0;" edge="1" parent="1" source="vlf1GPZ0-Nh4p41JJBdb-78">
          <mxGeometry relative="1" as="geometry">
            <mxPoint x="515" y="869" as="sourcePoint" />
            <mxPoint x="396" y="909" as="targetPoint" />
            <Array as="points">
              <mxPoint x="512" y="880" />
              <mxPoint x="396" y="880" />
            </Array>
          </mxGeometry>
        </mxCell>
        <mxCell id="vlf1GPZ0-Nh4p41JJBdb-94" value="merge" style="edgeLabel;html=1;align=center;verticalAlign=middle;resizable=0;points=[];" vertex="1" connectable="0" parent="vlf1GPZ0-Nh4p41JJBdb-93">
          <mxGeometry x="0.8073" relative="1" as="geometry">
            <mxPoint as="offset" />
          </mxGeometry>
        </mxCell>
      </root>
    </mxGraphModel>
  </diagram>
</mxfile>
